<svg xmlns="http://www.w3.org/2000/svg" viewBox="0 0 80 80">
  <path fill="#252F3E" d="M0 16c0-8.837 7.163-16 16-16h48c8.837 0 16 7.163 16 16v48c0 8.837-7.163 16-16 16H16c-8.837 0-16-7.163-16-16V16z"/>
  <path fill="#FF9900" d="M47.604 52.973c-4.659 3.438-11.42 5.27-17.242 5.27-8.157 0-15.505-3.017-21.065-8.034-.437-.395-.047-.934.478-.627 6 3.49 13.42 5.593 21.084 5.593 5.17 0 10.855-1.071 16.086-3.287.79-.335 1.45.519.659 1.085z"/>
  <path fill="#FF9900" d="M49.487 50.789c-.595-.762-3.938-.36-5.44-.182-.457.056-.527-.343-.115-.63 2.665-1.874 7.037-1.333 7.546-.705.51.632-.133 5.008-2.635 7.096-.385.322-.752.15-.58-.276.563-1.407 1.82-4.54 1.224-5.303z"/>
  <path fill="#FFF" d="M44.13 29.19v-2.015c0-.306.232-.51.51-.51h9.016c.29 0 .522.21.522.505v1.727c-.004.288-.247.664-.68 1.262l-4.672 6.671c1.735-.042 3.567.217 5.14 1.105.354.2.45.496.477.787v2.149c0 .295-.325.64-.666.461-2.783-1.459-6.479-1.617-9.554.017-.314.169-.643-.17-.643-.465v-2.042c0-.33.005-.893.339-1.394l5.413-7.764h-4.712c-.29 0-.522-.205-.522-.5zm-16.588 12.39h-2.744c-.262-.019-.47-.217-.49-.47v-13.93c0-.284.237-.51.53-.51h2.558c.266.013.48.217.497.474v1.82h.051c.666-1.767 1.921-2.591 3.608-2.591 1.714 0 2.784.824 3.554 2.591.664-1.767 2.174-2.591 3.79-2.591 1.15 0 2.406.474 3.175 1.54.868 1.186.69 2.907.69 4.42l-.004 8.725c0 .284-.237.514-.53.514h-2.74c-.274-.019-.494-.242-.494-.514V33.32c0-.594.052-2.077-.077-2.636-.205-.936-.82-1.2-1.615-1.2-.666 0-1.36.446-1.643 1.158-.283.713-.256 1.906-.256 2.678v7.746c0 .284-.237.514-.53.514h-2.74c-.278-.019-.498-.242-.498-.514l-.003-7.746c0-1.57.256-3.878-1.692-3.878-1.974 0-1.898 2.252-1.898 3.878v7.746c0 .284-.237.514-.53.514z"/>
  <path fill="#FFF" d="M20.24 41.58h-2.743c-.274-.019-.494-.242-.494-.514l-.003-13.93c0-.256.215-.47.479-.51h2.555c.242.013.437.182.483.406v2.132h.05c.741-1.95 1.767-2.878 3.582-2.878 1.228 0 2.426.442 3.197 1.658.716 1.13.716 3.028.716 4.392v8.799c-.028.233-.233.418-.479.456h-2.768c-.225-.034-.41-.21-.451-.456v-7.594c0-1.547.178-3.808-1.717-3.808-.668 0-1.282.449-1.588 1.13-.39.862-.44 1.72-.44 2.678v7.526c-.009.284-.249.514-.545.514z"/>
</svg>
