<svg xmlns="http://www.w3.org/2000/svg" viewBox="0 0 80 80">
  <path fill="#EA4335" d="M36.61 23.05l6.39-11.07c.35-.6-.09-1.35-.79-1.35h-12.78c-.7 0-1.14.75-.79 1.35l6.39 11.07"/>
  <path fill="#4285F4" d="M22.78 45.27l-6.39 11.07c-.35.6.09 1.35.79 1.35h12.78c.7 0 1.14-.75.79-1.35l-6.39-11.07"/>
  <path fill="#34A853" d="M57.22 45.27l6.39 11.07c.35.6-.09 1.35-.79 1.35H50.04c-.7 0-1.14-.75-.79-1.35l6.39-11.07"/>
  <path fill="#FBBC05" d="M40 23.05L33.61 34.12c-.35.6.09 1.35.79 1.35h12.78c.7 0 1.14-.75.79-1.35L40 23.05"/>
  <path fill="#EA4335" d="M40 56.95l6.39-11.07c.35-.6-.09-1.35-.79-1.35H32.82c-.7 0-1.14.75-.79 1.35L40 56.95"/>
  <path fill="#4285F4" d="M22.78 34.73L16.39 23.66c-.35-.6.09-1.35.79-1.35h12.78c.7 0 1.14.75.79 1.35l-6.39 11.07"/>
  <path fill="#34A853" d="M57.22 34.73l6.39-11.07c.35-.6-.09-1.35-.79-1.35H50.04c-.7 0-1.14.75-.79 1.35l6.39 11.07"/>
  <circle cx="40" cy="40" r="8" fill="#4285F4"/>
</svg>
