<svg xmlns="http://www.w3.org/2000/svg" viewBox="0 0 80 80">
  <path fill="#13AA52" d="M0 16c0-8.837 7.163-16 16-16h48c8.837 0 16 7.163 16 16v48c0 8.837-7.163 16-16 16H16c-8.837 0-16-7.163-16-16V16z"/>
  <path fill="#FFF" d="M40.5 17.3c-.8 0-1.6.3-2.2.9L24.2 32.3c-1.2 1.2-1.2 3.2 0 4.4l14.1 14.1c.6.6 1.4.9 2.2.9s1.6-.3 2.2-.9l14.1-14.1c1.2-1.2 1.2-3.2 0-4.4L42.7 18.2c-.6-.6-1.4-.9-2.2-.9z"/>
  <path fill="#13AA52" d="M40.5 24.1c-.3 0-.5.1-.7.3L30 34.2c-.4.4-.4 1 0 1.4l9.8 9.8c.2.2.5.3.7.3s.5-.1.7-.3l9.8-9.8c.4-.4.4-1 0-1.4l-9.8-9.8c-.2-.2-.4-.3-.7-.3z"/>
  <path fill="#FFF" d="M40.5 51.7v10.9c0 .5-.4.9-.9.9h-1.8c-.5 0-.9-.4-.9-.9V51.7"/>
</svg>
