<svg xmlns="http://www.w3.org/2000/svg" viewBox="0 0 80 80">
  <defs>
    <linearGradient id="mysql-grad" x1="0" y1="0" x2="80" y2="80" gradientUnits="userSpaceOnUse">
      <stop offset="0" stop-color="#00758F"/>
      <stop offset="1" stop-color="#005E73"/>
    </linearGradient>
  </defs>
  <path fill="url(#mysql-grad)" d="M0 16c0-8.837 7.163-16 16-16h48c8.837 0 16 7.163 16 16v48c0 8.837-7.163 16-16 16H16c-8.837 0-16-7.163-16-16V16z"/>
  <path fill="#F29111" d="M56 53c-1-.5-2-.5-3-.5-1.5 0-3 .5-4 1.5-.5.5-1 1-1 1.5 0 0 0 .5.5.5h.5c1-.5 2-1 3-1 .5 0 1 0 1.5.5.5 0 .5.5.5 1 0 .5 0 1-.5 1.5 0 0-.5.5-1 .5-.5.5-1.5.5-2 .5h-.5s-.5 0-.5.5v1c0 .5 0 .5.5.5h.5c1 0 2-.5 3-1 1-.5 1.5-1 2-2 .5-.5.5-1.5.5-2 0-1-.5-1.5-1-2-.5-.5-1.5-1-2.5-1.5h-1z"/>
  <path fill="#FFF" d="M18 53V34h4l5 12 5-12h4v19h-4V42l-4 11h-2l-4-11v11h-4z"/>
  <path fill="#FFF" d="M38 53l6-19h4l6 19h-4l-1-4h-6l-1 4h-4zm6-7h4l-2-7-2 7z"/>
</svg>
