<svg xmlns="http://www.w3.org/2000/svg" viewBox="0 0 80 80">
  <path fill="#C74634" d="M0 16c0-8.837 7.163-16 16-16h48c8.837 0 16 7.163 16 16v48c0 8.837-7.163 16-16 16H16c-8.837 0-16-7.163-16-16V16z"/>
  <path fill="#FFF" d="M40 18c-12.15 0-22 9.85-22 22s9.85 22 22 22 22-9.85 22-22-9.85-22-22-22zm0 38c-8.837 0-16-7.163-16-16s7.163-16 16-16 16 7.163 16 16-7.163 16-16 16z"/>
  <path fill="#FFF" d="M40 28c-6.627 0-12 5.373-12 12s5.373 12 12 12 12-5.373 12-12-5.373-12-12-12zm0 18c-3.314 0-6-2.686-6-6s2.686-6 6-6 6 2.686 6 6-2.686 6-6 6z"/>
</svg>
