<svg xmlns="http://www.w3.org/2000/svg" viewBox="0 0 80 80">
  <defs>
    <linearGradient id="pg-grad" x1="0" y1="0" x2="80" y2="80" gradientUnits="userSpaceOnUse">
      <stop offset="0" stop-color="#336791"/>
      <stop offset="1" stop-color="#264d73"/>
    </linearGradient>
  </defs>
  <path fill="url(#pg-grad)" d="M0 16c0-8.837 7.163-16 16-16h48c8.837 0 16 7.163 16 16v48c0 8.837-7.163 16-16 16H16c-8.837 0-16-7.163-16-16V16z"/>
  <path fill="#FFF" d="M56.9 34.8c-.4-2.4-1.5-4.3-3.3-5.7-1.8-1.4-4.1-2.1-6.8-2.1-2.1 0-3.9.4-5.5 1.3-1.2.7-2.3 1.6-3.1 2.8-.8-1.2-1.8-2.1-3-2.8-1.5-.9-3.4-1.3-5.5-1.3-2.7 0-5 .7-6.8 2.1-1.8 1.4-2.9 3.3-3.3 5.7l-2.6 18.6h5.8l2.1-15.1c.2-1.4.7-2.4 1.4-3.1.8-.7 1.8-1 3.1-1 1.4 0 2.5.4 3.2 1.1.7.8 1 1.8.8 3.2l-2.1 14.9h5.8l2.1-15.1c.2-1.4.7-2.4 1.4-3.1.8-.7 1.8-1 3.1-1 1.4 0 2.5.4 3.2 1.1.7.8 1 1.8.8 3.2l-2.1 14.9h5.8l2.6-18.6z"/>
  <ellipse cx="51" cy="24" rx="5" ry="6" fill="#FFF"/>
  <ellipse cx="51" cy="24" rx="2.5" ry="3" fill="#336791"/>
</svg>
