<svg xmlns="http://www.w3.org/2000/svg" viewBox="0 0 80 80">
  <path fill="#CC2927" d="M0 16c0-8.837 7.163-16 16-16h48c8.837 0 16 7.163 16 16v48c0 8.837-7.163 16-16 16H16c-8.837 0-16-7.163-16-16V16z"/>
  <path fill="#FFF" d="M20 48V32h3.5l.5 2c1-1.5 2.5-2.5 4.5-2.5 2.5 0 4 1.5 4.5 3 1-2 3-3 5-3 3.5 0 5.5 2.5 5.5 6.5v10h-4v-9c0-2-.5-3.5-2.5-3.5-1.5 0-2.5 1-2.5 3.5v9h-4v-9c0-2-.5-3.5-2.5-3.5-1.5 0-2.5 1-2.5 3.5v9h-4z"/>
  <path fill="#FFF" d="M46 44.5c0-2.5 2-4 5-4 1.5 0 2.5.5 3 .5v-.5c0-1.5-1-2.5-3-2.5-1.5 0-2.5.5-3.5 1l-1-3c1.5-1 3-1.5 5-1.5 4 0 6 2 6 5.5v8h-3.5l-.5-1.5c-1 1-2 2-4 2-2.5 0-4.5-1.5-4.5-4zm8-.5v-1c-.5 0-1.5-.5-2.5-.5-1.5 0-2.5.5-2.5 2 0 1 1 1.5 2 1.5 1.5 0 3-1 3-2z"/>
  <circle cx="62" cy="26" r="3" fill="#FFF"/>
</svg>
