<?xml version="1.0" encoding="UTF-8"?> <svg xmlns="http://www.w3.org/2000/svg" width="121" height="25" viewBox="0 0 121 25" fill="none"><g opacity="0.67"><path fill-rule="evenodd" clip-rule="evenodd" d="M56.3601 23.361L56.3621 0.583237C56.3621 0.22091 56.5809 0.00310648 56.9422 0.00310648H59.4134C59.7778 0.00310648 59.9946 0.22091 59.9946 0.583237L59.9925 23.361C59.9925 23.6887 59.7757 23.9076 59.448 23.9076L56.9036 23.9065C56.5779 23.9065 56.3601 23.6887 56.3601 23.361ZM62.827 23.362L62.8291 0.584255C62.8291 0.221928 63.0469 0.00412426 63.4092 0.00412426H65.8803C66.2447 0.00412426 66.4615 0.221928 66.4615 0.584255L66.4594 23.362C66.4594 23.6898 66.2416 23.9076 65.9149 23.9076H63.3705C63.0448 23.9076 62.827 23.6898 62.827 23.362ZM69.294 23.363V7.05119C69.294 6.68784 69.5118 6.47004 69.8751 6.47004H72.3452C72.7096 6.47004 72.9264 6.68784 72.9264 7.05119V23.363C72.9264 23.6908 72.7076 23.9076 72.3809 23.9076H69.8385C69.5107 23.9076 69.294 23.6898 69.294 23.363ZM69.9128 0.00412426H72.3106C72.3927 0.000347487 72.4747 0.0137501 72.5513 0.0434743C72.6279 0.0731985 72.6975 0.11859 72.7555 0.176742C72.8136 0.234895 72.8588 0.304528 72.8884 0.381185C72.918 0.457842 72.9313 0.539834 72.9274 0.621913V3.01877C72.9313 3.10094 72.918 3.18302 72.8884 3.25975C72.8587 3.33648 72.8133 3.40616 72.7552 3.46433C72.697 3.5225 72.6273 3.56787 72.5506 3.59753C72.4739 3.62719 72.3918 3.64048 72.3096 3.63656H69.9128C69.8306 3.64048 69.7485 3.62719 69.6718 3.59753C69.595 3.56787 69.5254 3.5225 69.4672 3.46433C69.409 3.40616 69.3637 3.33648 69.334 3.25975C69.3043 3.18302 69.291 3.10094 69.295 3.01877V0.621913C69.291 0.539744 69.3043 0.457662 69.334 0.380932C69.3637 0.304202 69.409 0.234518 69.4672 0.17635C69.5254 0.118182 69.595 0.072813 69.6718 0.0431542C69.7485 0.0134954 69.8306 0.000201198 69.9128 0.00412426ZM49.8942 23.361L49.8962 7.04915C49.8962 6.68581 50.113 6.468 50.4763 6.468H52.9465C53.3108 6.468 53.5276 6.68581 53.5276 7.05017L53.5256 23.361C53.5256 23.6887 53.3088 23.9065 52.9821 23.9065H50.4377C50.112 23.9065 49.8942 23.6887 49.8942 23.361ZM50.513 0.00310648H52.9108C52.9928 -0.000659511 53.0747 0.0127162 53.1513 0.0423794C53.2278 0.0720426 53.2973 0.117341 53.3553 0.175382C53.4134 0.233423 53.4587 0.302931 53.4883 0.379466C53.518 0.456001 53.5314 0.537881 53.5276 0.619877V3.01673C53.5315 3.09881 53.5183 3.18081 53.4887 3.25746C53.4591 3.33412 53.4138 3.40375 53.3557 3.46191C53.2977 3.52006 53.2281 3.56545 53.1515 3.59517C53.0749 3.6249 52.9929 3.6383 52.9108 3.63452H50.513C50.4309 3.6383 50.3489 3.6249 50.2723 3.59517C50.1957 3.56545 50.1261 3.52006 50.0681 3.46191C50.01 3.40375 49.9648 3.33412 49.9352 3.25746C49.9056 3.18081 49.8923 3.09881 49.8962 3.01673V0.619877C49.8923 0.537798 49.9056 0.455806 49.9352 0.379149C49.9648 0.302492 50.01 0.232859 50.0681 0.174707C50.1261 0.116554 50.1957 0.071163 50.2723 0.0414388C50.3489 0.0117146 50.4309 -0.00168806 50.513 0.00208871" fill="white"></path><path fill-rule="evenodd" clip-rule="evenodd" d="M7.1355 23.3569L7.13652 0.581149C7.13652 0.218821 7.35635 0.00101777 7.71766 0.00101777H10.1888C10.5522 0.00101777 10.769 0.218821 10.769 0.581149V23.3589C10.769 23.6866 10.5511 23.9044 10.2234 23.9034H7.67899C7.3533 23.9034 7.1355 23.6866 7.1355 23.3589M13.6024 23.3579L13.6035 0.580131C13.6035 0.217804 13.8223 0 14.1846 0H16.6558C17.0191 0 17.2359 0.217804 17.2359 0.580131V23.3579C17.2359 23.6856 17.0181 23.9034 16.6904 23.9034H14.1459C13.8202 23.9034 13.6024 23.6856 13.6024 23.3579ZM20.0683 23.3589L20.0704 7.04706C20.0704 6.68372 20.2872 6.46592 20.6505 6.46592H23.1207C23.485 6.46592 23.7018 6.68474 23.7018 7.04706V23.3589C23.7018 23.6866 23.483 23.9045 23.1573 23.9045H20.6129C20.2872 23.9045 20.0694 23.6866 20.0694 23.3589" fill="white"></path><mask id="mask0_20_286" style="mask-type:luminance" maskUnits="userSpaceOnUse" x="0" y="6" width="5" height="18"><path d="M0.669556 6.46387H4.30301V23.9024H0.669556V6.46387Z" fill="white"></path></mask><g mask="url(#mask0_20_286)"><path fill-rule="evenodd" clip-rule="evenodd" d="M0.669556 23.3579V7.04603C0.669556 6.68269 0.887359 6.46387 1.24969 6.46387H3.72288C4.08622 6.46387 4.30301 6.68269 4.30301 7.04603V23.3579C4.30301 23.6846 4.0852 23.9024 3.7585 23.9024H1.21406C0.888377 23.9024 0.670573 23.6846 0.670573 23.3579" fill="white"></path></g><path fill-rule="evenodd" clip-rule="evenodd" d="M107.439 12.3212V23.3295C107.439 23.6928 107.221 23.9106 106.858 23.9106H104.388C104.023 23.9106 103.807 23.6928 103.807 23.3305V13.0825C103.807 10.1045 103.08 9.15899 101.082 9.15899C99.4109 9.15899 97.7763 9.81342 96.3229 10.7579V23.3641C96.3229 23.6918 96.1041 23.9086 95.7764 23.9086H93.234C92.9073 23.9086 92.6885 23.6908 92.6885 23.363L92.6905 7.0522C92.6905 6.68784 92.9083 6.47003 93.2727 6.47105H95.4884C95.8507 6.47105 96.0695 6.68885 96.0695 7.05118V8.06896C97.9219 6.68885 99.8841 6.03544 101.99 6.03544C105.77 6.03544 107.44 8.14224 107.439 12.3202M81.5357 21.5107C83.1713 21.5107 84.8058 20.9662 86.2225 19.9851V16.2081C85.0411 16.0699 83.8529 15.9965 82.6634 15.9883H82.5178C79.5755 15.9883 78.521 16.716 78.521 18.6406V18.7139C78.521 20.6395 79.5022 21.5107 81.5357 21.5107ZM89.856 12.7568V23.3284C89.856 23.6918 89.6372 23.9096 89.2738 23.9096H87.0581C86.6948 23.9096 86.477 23.6908 86.477 23.3274V22.3829C84.8424 23.764 82.9524 24.3442 80.8467 24.3442C77.0667 24.3442 74.9232 22.4918 74.9232 18.7861L74.9253 18.7128C74.9253 15.117 76.9588 13.4102 82.5545 13.4102H82.699C83.899 13.4102 85.0623 13.5191 86.2225 13.6647V12.9013C86.2225 9.8867 85.3513 9.12337 82.1189 9.12337C80.3022 9.12235 78.7042 9.3768 77.3964 9.5946C76.9964 9.63124 76.743 9.45007 76.743 9.05009V7.23336C76.743 6.79776 76.8509 6.61456 77.2132 6.54331C78.8498 6.25223 80.9199 6.03443 82.7377 6.03443C87.6769 6.03443 89.857 7.81553 89.856 12.7568ZM120.444 21.586V23.5116C120.444 23.8394 120.263 24.0938 119.9 24.1304C119.063 24.275 118.119 24.3472 117.246 24.3472C113.396 24.3472 111.761 22.8206 111.761 18.3159V9.45415L109.437 9.45313C109.074 9.45313 108.857 9.23431 108.857 8.87198V7.05424C108.857 6.69089 109.074 6.47309 109.437 6.47309H111.763V1.60406C111.763 1.24071 111.98 1.02393 112.344 1.02393H114.814C115.177 1.02393 115.396 1.24071 115.396 1.60507V6.47309H119.537C119.9 6.47309 120.118 6.69191 120.118 7.05424V8.87198C120.118 9.23431 119.9 9.45211 119.536 9.45211H115.395V17.6991C115.395 20.5693 115.975 21.2227 117.937 21.2227C118.555 21.2227 119.208 21.186 119.826 21.1148C120.226 21.0781 120.444 21.186 120.444 21.587M47.424 21.5087V23.3254C47.424 23.6877 47.2062 23.9055 46.8428 23.9055H35.6158C35.2534 23.9055 35.0356 23.6877 35.0356 23.3244V21.5076C35.0356 21.2532 35.1089 20.9988 35.2534 20.781L42.9916 9.44702H35.9079C35.5445 9.44702 35.3277 9.2282 35.3277 8.86486V7.04813C35.3277 6.68478 35.5445 6.468 35.9079 6.468H46.4805C46.8449 6.468 47.0617 6.6858 47.0617 7.04915V8.90149C47.0617 9.15594 46.9884 9.41038 46.8449 9.62819L39.1403 20.9255L46.8428 20.9275C47.2062 20.9275 47.423 21.1443 47.423 21.5076" fill="white"></path></g></svg> 