<?xml version="1.0" encoding="UTF-8"?> <svg xmlns="http://www.w3.org/2000/svg" width="64" height="61" viewBox="0 0 64 61" fill="none"><path d="M43.8493 5.31662C46.4052 5.31662 48.478 7.58437 48.478 10.3809C48.478 12.2707 47.5323 13.9181 46.1306 14.7893C45.4425 15.2316 44.6408 15.4858 43.7849 15.4858C41.2291 15.4858 39.1562 13.2181 39.1562 10.4216C39.1562 8.53181 40.102 6.88609 41.5036 6.01493C42.1918 5.57087 42.9934 5.31662 43.8493 5.31662Z" stroke="#0B978E" stroke-width="3" stroke-miterlimit="22.9256" stroke-linecap="round" stroke-linejoin="round"></path><path d="M33.263 40.5157C30.8868 39.7802 31.6529 37.2073 31.7783 35.443L32.702 22.5416C33.019 18.0994 53.954 18.4231 54.6963 22.4976M43.7797 42.6648L43.7661 59.4067M50.6558 59.3457L50.5117 47.6664L50.3304 27.1941M54.3726 40.5157C56.7471 39.7802 55.9828 37.2073 55.8556 35.443L54.9336 22.5416M37.507 27.1941L37.3239 47.6664L37.1799 59.3457" stroke="#0B978E" stroke-width="3" stroke-miterlimit="22.9256" stroke-linecap="round" stroke-linejoin="round"></path><path d="M59.9013 32.3278V59.4067H54.5336M33.1223 59.4067H3.69434V32.3278H27.6259" stroke="#0B978E" stroke-width="3" stroke-miterlimit="22.9256" stroke-linecap="round" stroke-linejoin="round"></path><path d="M2.00098 32.3281H3.69416" stroke="#0B978E" stroke-width="3" stroke-miterlimit="22.9256" stroke-linecap="round" stroke-linejoin="round"></path><path d="M59.998 31.96H62.0014" stroke="#0B978E" stroke-width="3" stroke-miterlimit="22.9256" stroke-linecap="round" stroke-linejoin="round"></path><path d="M19.0112 2.00022C16.4367 2.00022 14.3486 4.26627 14.3486 7.0645C14.3486 8.95259 15.3011 10.6017 16.713 11.4712C17.4062 11.9135 18.2129 12.1694 19.0756 12.1694C21.6484 12.1694 23.7365 9.90169 23.7365 7.10346C23.7365 5.21538 22.784 3.56797 21.3739 2.6968C20.6807 2.25444 19.8722 2.00022 19.0112 2.00022Z" stroke="#0B978E" stroke-width="3" stroke-miterlimit="22.9256" stroke-linecap="round" stroke-linejoin="round"></path><path d="M12.3076 27.8689L12.3551 23.6724M7.85352 27.8384L8.28064 19.1997C8.45352 14.9218 28.7377 15.2405 29.3936 19.1573M25.3514 23.6724L25.3988 28.1655" stroke="#0B978E" stroke-width="3" stroke-miterlimit="22.9256" stroke-linecap="round" stroke-linejoin="round"></path></svg> 