<?xml version="1.0" encoding="UTF-8"?>
<svg xmlns="http://www.w3.org/2000/svg" width="53" height="52" viewBox="0 0 53 52" fill="none">
  <path d="M15.0921 22.8733C20.823 17.0316 22.1289 17.0288 24.3863 9.47361C24.8366 7.96285 28.1662 8.54999 28.7774 10.0129C31.0193 15.3843 28.4633 18.71 25.7881 23.1014L41.1135 23.0015C45.8372 22.9705 45.0202 27.645 42.1934 28.3785C42.0016 28.4278 41.1321 28.4926 40.9232 28.4771L40.6245 28.4532L41.7571 29.1065C42.3002 29.4205 42.6715 29.9597 42.7133 30.4581C42.8154 31.6845 42.0372 32.7954 40.8706 33.2727C40.6833 33.3501 39.6776 33.3262 39.4688 33.3684C39.6343 33.4614 40.5936 33.6542 40.7344 33.7711C41.31 34.2442 41.6983 34.913 41.7618 35.6705C41.8623 36.8968 41.0841 38.0105 39.9144 38.4864C39.7287 38.5625 38.2991 38.5808 38.0933 38.623C38.3517 38.7694 39.3527 38.9919 39.5539 39.196C39.9964 39.6458 40.2903 40.2313 40.3445 40.8807V40.881C40.3445 42.4495 39.1702 43.5581 37.4543 43.5857L24.2161 43.799C20.5136 43.8587 16.9457 41.3389 15.0596 40.3545" stroke="#E32A24" stroke-width="2" stroke-miterlimit="22.9256" stroke-linecap="round" stroke-linejoin="round"></path>
  <path d="M2.74424 22.6721H9.93673C10.7131 22.6721 11.3481 23.2508 11.3481 23.9562V41.9245C11.3481 42.6308 10.7131 43.2087 9.93673 43.2087H2.74424C1.96799 43.2087 1.33301 42.6308 1.33301 41.9245V23.9562C1.33301 23.2508 1.96799 22.6721 2.74424 22.6721Z" stroke="#E32A24" stroke-width="2" stroke-miterlimit="22.9256" stroke-linecap="round" stroke-linejoin="round"></path>
  <path d="M33.078 46.8506C31.356 52.1844 25.526 51.0703 25.9097 46.6692" stroke="#E32A24" stroke-width="2" stroke-miterlimit="22.9256" stroke-linecap="round" stroke-linejoin="round"></path>
  <path d="M34.6445 20.2996L36.1004 16.4276C33.467 14.2692 32.3515 10.8098 33.5722 7.56579C34.8472 4.17538 38.2928 2.02259 42.0124 1.94937L39.1345 9.60314L41.621 11.8109L45.0713 11.4518L47.9491 3.79945C50.8409 5.92972 52.1143 9.55246 50.8394 12.9429C49.6186 16.1883 46.4096 18.2988 42.8742 18.5382L42.212 20.2996" stroke="#E32A24" stroke-width="2" stroke-miterlimit="22.9256" stroke-linecap="round" stroke-linejoin="round"></path>
</svg>
