<?xml version="1.0" encoding="UTF-8"?> <svg xmlns="http://www.w3.org/2000/svg" width="64" height="64" viewBox="0 0 64 64" fill="none"><path d="M36.2115 57.6699C40.1769 57.0783 44.1933 55.6943 46.8926 52.9932C50.247 49.6406 52.8601 43.9531 52.8601 38.8679V21.5625C52.8601 16.4773 50.247 11.3216 46.8926 7.9672C43.54 4.61284 38.3826 1.99977 33.2973 1.99977H30.7582C25.673 1.99977 20.5173 4.61284 17.1629 7.9672C13.8103 11.3216 11.1973 16.4773 11.1973 21.5625V38.8679" stroke="#6278B2" stroke-width="3" stroke-miterlimit="22.9256" stroke-linecap="round" stroke-linejoin="round"></path><path d="M10.5885 39.1411C5.78853 38.7731 2.00098 34.4978 2.00098 29.2805C2.00098 24.0614 5.78853 19.7879 10.5885 19.4199" stroke="#6278B2" stroke-width="3" stroke-miterlimit="22.9256" stroke-linecap="round" stroke-linejoin="round"></path><path d="M53.4131 39.1411C58.2131 38.7731 62.0006 34.4978 62.0006 29.2805C62.0006 24.0614 58.2131 19.7879 53.4131 19.4199" stroke="#6278B2" stroke-width="3" stroke-miterlimit="22.9256" stroke-linecap="round" stroke-linejoin="round"></path><path d="M32.0003 53.5215C34.3158 53.5215 36.1928 55.3985 36.1928 57.714C36.1928 60.0277 34.3158 61.9048 32.0003 61.9048C29.6866 61.9048 27.8096 60.0277 27.8096 57.714C27.8096 55.3985 29.6866 53.5215 32.0003 53.5215Z" stroke="#6278B2" stroke-width="3" stroke-miterlimit="22.9256" stroke-linecap="round" stroke-linejoin="round"></path><path d="M10.8281 19.9233C16.9734 18.6714 22.1397 14.7254 25.0433 9.37602C28.8502 13.3097 34.1854 15.7572 40.093 15.7572C43.8418 15.7572 47.3599 14.7712 50.4026 13.0473" stroke="#6278B2" stroke-width="3" stroke-miterlimit="22.9256" stroke-linecap="round" stroke-linejoin="round"></path><path d="M40.3357 36.6355C39.8779 37.7184 39.2158 38.6921 38.397 39.5109C37.5783 40.3297 36.6046 40.9918 35.5216 41.4496C34.4387 41.9074 33.2502 42.1592 32 42.1592C30.7516 42.1592 29.5613 41.9074 28.4801 41.4496C27.3972 40.9918 26.4235 40.3297 25.6047 39.5109C24.7859 38.6921 24.1238 37.7184 23.666 36.6355" stroke="#6278B2" stroke-width="3" stroke-miterlimit="22.9256" stroke-linecap="round" stroke-linejoin="round"></path><path d="M27.8477 26.606C27.7086 26.2784 27.5096 25.9844 27.2613 25.7379C27.0148 25.4896 26.7208 25.2906 26.3932 25.1515C26.0657 25.0142 25.7065 24.9367 25.3297 24.9367C24.9529 24.9367 24.5937 25.0142 24.2662 25.1515C23.9404 25.2906 23.6446 25.4896 23.3981 25.7379C23.1516 25.9844 22.9508 26.2784 22.8135 26.606" stroke="#6278B2" stroke-width="3" stroke-miterlimit="22.9256" stroke-linecap="round" stroke-linejoin="round"></path><path d="M41.1885 26.606C41.0511 26.2784 40.8504 25.9844 40.6039 25.7379C40.3574 25.4896 40.0615 25.2906 39.7358 25.1515C39.4083 25.0142 39.0491 24.9367 38.6723 24.9367C38.2955 24.9367 37.9362 25.0142 37.6087 25.1515C37.2812 25.2906 36.9871 25.4896 36.7406 25.7379C36.4924 25.9844 36.2934 26.2784 36.1543 26.606" stroke="#6278B2" stroke-width="3" stroke-miterlimit="22.9256" stroke-linecap="round" stroke-linejoin="round"></path></svg> 