<svg width="198" height="33" viewBox="0 0 198 33" fill="none" xmlns="http://www.w3.org/2000/svg">
<path d="M7.15723 31.9326C6.78613 31.6494 6.56152 31.2734 6.4834 30.8047C6.40527 30.3457 6.46875 29.8135 6.67383 29.208L9.64746 20.375L2.05957 14.9404C1.53223 14.5596 1.16113 14.1641 0.946289 13.7539C0.741211 13.334 0.716797 12.8994 0.873047 12.4502C1.01953 12.0107 1.29785 11.6836 1.70801 11.4688C2.11816 11.2539 2.64551 11.1514 3.29004 11.1611L12.6064 11.2197L15.4336 2.32812C15.6289 1.71289 15.8926 1.24414 16.2246 0.921875C16.5566 0.589844 16.9521 0.423828 17.4111 0.423828C17.8799 0.423828 18.2803 0.589844 18.6123 0.921875C18.9443 1.24414 19.208 1.71289 19.4033 2.32812L22.2305 11.2197L31.5322 11.1611C32.1865 11.1514 32.7188 11.2539 33.1289 11.4688C33.5391 11.6836 33.8174 12.0107 33.9639 12.4502C34.1201 12.8994 34.0908 13.334 33.876 13.7539C33.6709 14.1641 33.3047 14.5596 32.7773 14.9404L25.1895 20.375L28.1631 29.208C28.3682 29.8135 28.4316 30.3457 28.3535 30.8047C28.2754 31.2734 28.0508 31.6494 27.6797 31.9326C27.2988 32.2158 26.874 32.3184 26.4053 32.2402C25.9463 32.1621 25.458 31.9326 24.9404 31.5518L17.4111 26.0293L9.89648 31.5518C9.37891 31.9326 8.88574 32.1621 8.41699 32.2402C7.95801 32.3184 7.53809 32.2158 7.15723 31.9326ZM47.9443 31.9326C47.5732 31.6494 47.3486 31.2734 47.2705 30.8047C47.1924 30.3457 47.2559 29.8135 47.4609 29.208L50.4346 20.375L42.8467 14.9404C42.3193 14.5596 41.9482 14.1641 41.7334 13.7539C41.5283 13.334 41.5039 12.8994 41.6602 12.4502C41.8066 12.0107 42.085 11.6836 42.4951 11.4688C42.9053 11.2539 43.4326 11.1514 44.0771 11.1611L53.3936 11.2197L56.2207 2.32812C56.416 1.71289 56.6797 1.24414 57.0117 0.921875C57.3438 0.589844 57.7393 0.423828 58.1982 0.423828C58.667 0.423828 59.0674 0.589844 59.3994 0.921875C59.7314 1.24414 59.9951 1.71289 60.1904 2.32812L63.0176 11.2197L72.3193 11.1611C72.9736 11.1514 73.5059 11.2539 73.916 11.4688C74.3262 11.6836 74.6045 12.0107 74.751 12.4502C74.9072 12.8994 74.8779 13.334 74.6631 13.7539C74.458 14.1641 74.0918 14.5596 73.5645 14.9404L65.9766 20.375L68.9502 29.208C69.1553 29.8135 69.2188 30.3457 69.1406 30.8047C69.0625 31.2734 68.8379 31.6494 68.4668 31.9326C68.0859 32.2158 67.6611 32.3184 67.1924 32.2402C66.7334 32.1621 66.2451 31.9326 65.7275 31.5518L58.1982 26.0293L50.6836 31.5518C50.166 31.9326 49.6729 32.1621 49.2041 32.2402C48.7451 32.3184 48.3252 32.2158 47.9443 31.9326ZM88.7314 31.9326C88.3604 31.6494 88.1357 31.2734 88.0576 30.8047C87.9795 30.3457 88.043 29.8135 88.248 29.208L91.2217 20.375L83.6338 14.9404C83.1064 14.5596 82.7354 14.1641 82.5205 13.7539C82.3154 13.334 82.291 12.8994 82.4473 12.4502C82.5938 12.0107 82.8721 11.6836 83.2822 11.4688C83.6924 11.2539 84.2197 11.1514 84.8643 11.1611L94.1807 11.2197L97.0078 2.32812C97.2031 1.71289 97.4668 1.24414 97.7988 0.921875C98.1309 0.589844 98.5264 0.423828 98.9854 0.423828C99.4541 0.423828 99.8545 0.589844 100.187 0.921875C100.519 1.24414 100.782 1.71289 100.978 2.32812L103.805 11.2197L113.106 11.1611C113.761 11.1514 114.293 11.2539 114.703 11.4688C115.113 11.6836 115.392 12.0107 115.538 12.4502C115.694 12.8994 115.665 13.334 115.45 13.7539C115.245 14.1641 114.879 14.5596 114.352 14.9404L106.764 20.375L109.737 29.208C109.942 29.8135 110.006 30.3457 109.928 30.8047C109.85 31.2734 109.625 31.6494 109.254 31.9326C108.873 32.2158 108.448 32.3184 107.979 32.2402C107.521 32.1621 107.032 31.9326 106.515 31.5518L98.9854 26.0293L91.4707 31.5518C90.9531 31.9326 90.46 32.1621 89.9912 32.2402C89.5322 32.3184 89.1123 32.2158 88.7314 31.9326ZM129.519 31.9326C129.147 31.6494 128.923 31.2734 128.845 30.8047C128.767 30.3457 128.83 29.8135 129.035 29.208L132.009 20.375L124.421 14.9404C123.894 14.5596 123.522 14.1641 123.308 13.7539C123.103 13.334 123.078 12.8994 123.234 12.4502C123.381 12.0107 123.659 11.6836 124.069 11.4688C124.479 11.2539 125.007 11.1514 125.651 11.1611L134.968 11.2197L137.795 2.32812C137.99 1.71289 138.254 1.24414 138.586 0.921875C138.918 0.589844 139.313 0.423828 139.772 0.423828C140.241 0.423828 140.642 0.589844 140.974 0.921875C141.306 1.24414 141.569 1.71289 141.765 2.32812L144.592 11.2197L153.894 11.1611C154.548 11.1514 155.08 11.2539 155.49 11.4688C155.9 11.6836 156.179 12.0107 156.325 12.4502C156.481 12.8994 156.452 13.334 156.237 13.7539C156.032 14.1641 155.666 14.5596 155.139 14.9404L147.551 20.375L150.524 29.208C150.729 29.8135 150.793 30.3457 150.715 30.8047C150.637 31.2734 150.412 31.6494 150.041 31.9326C149.66 32.2158 149.235 32.3184 148.767 32.2402C148.308 32.1621 147.819 31.9326 147.302 31.5518L139.772 26.0293L132.258 31.5518C131.74 31.9326 131.247 32.1621 130.778 32.2402C130.319 32.3184 129.899 32.2158 129.519 31.9326ZM170.306 31.9326C169.935 31.6494 169.71 31.2734 169.632 30.8047C169.554 30.3457 169.617 29.8135 169.822 29.208L172.796 20.375L165.208 14.9404C164.681 14.5596 164.31 14.1641 164.095 13.7539C163.89 13.334 163.865 12.8994 164.021 12.4502C164.168 12.0107 164.446 11.6836 164.856 11.4688C165.267 11.2539 165.794 11.1514 166.438 11.1611L175.755 11.2197L178.582 2.32812C178.777 1.71289 179.041 1.24414 179.373 0.921875C179.705 0.589844 180.101 0.423828 180.56 0.423828C181.028 0.423828 181.429 0.589844 181.761 0.921875C182.093 1.24414 182.356 1.71289 182.552 2.32812L185.379 11.2197L194.681 11.1611C195.335 11.1514 195.867 11.2539 196.277 11.4688C196.688 11.6836 196.966 12.0107 197.112 12.4502C197.269 12.8994 197.239 13.334 197.024 13.7539C196.819 14.1641 196.453 14.5596 195.926 14.9404L188.338 20.375L191.312 29.208C191.517 29.8135 191.58 30.3457 191.502 30.8047C191.424 31.2734 191.199 31.6494 190.828 31.9326C190.447 32.2158 190.022 32.3184 189.554 32.2402C189.095 32.1621 188.606 31.9326 188.089 31.5518L180.56 26.0293L173.045 31.5518C172.527 31.9326 172.034 32.1621 171.565 32.2402C171.106 32.3184 170.687 32.2158 170.306 31.9326Z" fill="#E32A24"/>
</svg>
